<svg xmlns="http://www.w3.org/2000/svg" class="Icon" viewBox="0 0 32 32" fill="currentcolor" role="img" aria-label="gear icon"><path d="M12.088.996c0-.55.441-.996 1.006-.996h6.189c.555 0 1.005.452 1.005 1.007V3.53c0 .556.375 1.235.848 1.524l1.806 1.102c.468.286 1.252.328 1.748.095l2.756-1.292a1.125 1.125 0 0 1 1.417.432l2.979 4.93a1.063 1.063 0 0 1-.307 1.408l-2.147 1.445c-.455.306-.823 1.011-.823 1.55v2.6c0 .55.353 1.278.774 1.614l2.279 1.818c.428.341.512.976.181 1.43l-3.211 4.394c-.328.448-.992.588-1.463.324l-2.27-1.272c-.48-.27-1.238-.242-1.709.071l-2.019 1.344c-.463.309-.839 1.013-.839 1.556v2.4c0 .55-.44.997-1.005.997h-6.19a1.006 1.006 0 0 1-1.005-.997v-2.4c0-.55-.372-1.26-.823-1.58l-1.829-1.295c-.454-.322-1.198-.35-1.664-.06l-2.9 1.808a.985.985 0 0 1-1.361-.325L.309 21.923a1.03 1.03 0 0 1 .318-1.393l2.566-1.666c.463-.3.838-.99.838-1.539v-2.494c0-.55-.391-1.226-.86-1.503L.485 11.74a.99.99 0 0 1-.35-1.36l3.14-5.236c.28-.47.907-.646 1.393-.397l3.308 1.7c.488.25 1.23.175 1.666-.178l1.665-1.345c.432-.348.781-1.074.781-1.627V.996zM16.002 22c3.33 0 6.028-2.686 6.028-6s-2.699-6-6.028-6c-3.329 0-6.027 2.686-6.027 6s2.698 6 6.027 6z"/></svg>
