<?xml version="1.0" encoding="utf-8"?>
<!-- Generator: Adobe Illustrator 24.0.3, SVG Export Plug-In . SVG Version: 6.00 Build 0)  -->
<svg version="1.1" id="Layer_1" xmlns="http://www.w3.org/2000/svg" xmlns:xlink="http://www.w3.org/1999/xlink" x="0px" y="0px"
	 viewBox="0 0 60 60" style="enable-background:new 0 0 60 60;" xml:space="preserve">
<style type="text/css">
	.st0{fill:#479FF4;}
</style>
<path d="M868.01,249.85c1.08-0.67,2.15-1.34,2.81-1.76c-1.3-1.77-2.39-3.27-3.49-4.77c0.94-0.5,1.88-1,2.82-1.5
	c0.8,1.61,2.37,3.31,2.2,4.81c-0.17,1.54-2.05,2.89-3.18,4.32C868.78,250.58,868.4,250.21,868.01,249.85z"/>
<g>
	<path class="st0" d="M30-0.04c16.64,0.01,30.02,13.41,30,30.04c-0.01,16.6-13.51,30.04-30.09,29.96C13.32,59.89-0.02,46.49,0,29.91
		C0.02,13.34,13.43-0.05,30-0.04z M49.27,47.67c9.5-10.15,9.58-26.88-1.64-37.11C36.52,0.41,19.15,1.69,9.69,13.39
		C0.13,25.2,3.16,39.9,10.78,47.61c0.06-0.27,0.11-0.49,0.16-0.72c1.38-5.89,4.66-10.25,10.22-12.8c1.07-0.49,2.04-0.45,3.08,0.12
		c3.83,2.09,7.69,2.09,11.52,0c1.05-0.57,2.01-0.61,3.08-0.12c4.86,2.23,8.08,5.91,9.71,10.99C48.82,45.9,49.02,46.74,49.27,47.67z"
		/>
	<path class="st0" d="M41.96,21.39c0.01,6.63-5.3,11.97-11.93,11.99c-6.68,0.02-11.99-5.44-12-11.93
		c-0.01-6.63,5.32-12.01,11.94-12.02C36.59,9.42,41.95,14.76,41.96,21.39z"/>
</g>
</svg>
